<mxfile host="app.diagrams.net" agent="Mozilla/5.0 (Macintosh; Intel Mac OS X 10_15_7) AppleWebKit/537.36 (KHTML, like Gecko) Chrome/131.0.0.0 Safari/537.36" version="25.0.1">
  <diagram name="Page-1" id="Ka-O8l_bAWFAA6UwInnS">
    <mxGraphModel dx="2724" dy="1163" grid="1" gridSize="10" guides="1" tooltips="1" connect="1" arrows="1" fold="1" page="1" pageScale="1" pageWidth="827" pageHeight="1169" math="0" shadow="0">
      <root>
        <mxCell id="0" />
        <mxCell id="1" parent="0" />
        <mxCell id="SCFeL1x_HWJHzheNtqTO-99" value="" style="rounded=0;whiteSpace=wrap;html=1;fillColor=none;strokeColor=#f8cecc;dashed=1;dashPattern=8 8;strokeWidth=5;" vertex="1" parent="1">
          <mxGeometry x="-250" y="1030" width="1170" height="200" as="geometry" />
        </mxCell>
        <mxCell id="SCFeL1x_HWJHzheNtqTO-69" style="edgeStyle=orthogonalEdgeStyle;rounded=0;orthogonalLoop=1;jettySize=auto;html=1;" edge="1" parent="1" source="SCFeL1x_HWJHzheNtqTO-48" target="SCFeL1x_HWJHzheNtqTO-68">
          <mxGeometry relative="1" as="geometry" />
        </mxCell>
        <mxCell id="SCFeL1x_HWJHzheNtqTO-12" value="" style="edgeStyle=orthogonalEdgeStyle;rounded=0;orthogonalLoop=1;jettySize=auto;html=1;" edge="1" parent="1" source="SCFeL1x_HWJHzheNtqTO-1" target="SCFeL1x_HWJHzheNtqTO-11">
          <mxGeometry relative="1" as="geometry" />
        </mxCell>
        <mxCell id="SCFeL1x_HWJHzheNtqTO-19" value="" style="edgeStyle=orthogonalEdgeStyle;rounded=0;orthogonalLoop=1;jettySize=auto;html=1;" edge="1" parent="1" source="SCFeL1x_HWJHzheNtqTO-1" target="SCFeL1x_HWJHzheNtqTO-18">
          <mxGeometry relative="1" as="geometry" />
        </mxCell>
        <mxCell id="SCFeL1x_HWJHzheNtqTO-24" value="" style="edgeStyle=orthogonalEdgeStyle;rounded=0;orthogonalLoop=1;jettySize=auto;html=1;" edge="1" parent="1" source="SCFeL1x_HWJHzheNtqTO-1" target="SCFeL1x_HWJHzheNtqTO-23">
          <mxGeometry relative="1" as="geometry" />
        </mxCell>
        <mxCell id="SCFeL1x_HWJHzheNtqTO-25" value="Router" style="edgeLabel;html=1;align=center;verticalAlign=middle;resizable=0;points=[];" vertex="1" connectable="0" parent="SCFeL1x_HWJHzheNtqTO-24">
          <mxGeometry x="0.125" relative="1" as="geometry">
            <mxPoint x="-48" as="offset" />
          </mxGeometry>
        </mxCell>
        <mxCell id="SCFeL1x_HWJHzheNtqTO-1" value="App.vue" style="rounded=0;whiteSpace=wrap;html=1;fillColor=#d5e8d4;strokeColor=#82b366;" vertex="1" parent="1">
          <mxGeometry x="414" y="280" width="120" height="60" as="geometry" />
        </mxCell>
        <mxCell id="SCFeL1x_HWJHzheNtqTO-28" value="" style="edgeStyle=orthogonalEdgeStyle;rounded=0;orthogonalLoop=1;jettySize=auto;html=1;" edge="1" parent="1" source="SCFeL1x_HWJHzheNtqTO-2" target="SCFeL1x_HWJHzheNtqTO-27">
          <mxGeometry relative="1" as="geometry" />
        </mxCell>
        <mxCell id="SCFeL1x_HWJHzheNtqTO-30" value="" style="edgeStyle=orthogonalEdgeStyle;rounded=0;orthogonalLoop=1;jettySize=auto;html=1;" edge="1" parent="1" source="SCFeL1x_HWJHzheNtqTO-2" target="SCFeL1x_HWJHzheNtqTO-27">
          <mxGeometry relative="1" as="geometry" />
        </mxCell>
        <mxCell id="SCFeL1x_HWJHzheNtqTO-32" value="" style="edgeStyle=orthogonalEdgeStyle;rounded=0;orthogonalLoop=1;jettySize=auto;html=1;" edge="1" parent="1" source="SCFeL1x_HWJHzheNtqTO-2" target="SCFeL1x_HWJHzheNtqTO-31">
          <mxGeometry relative="1" as="geometry" />
        </mxCell>
        <mxCell id="SCFeL1x_HWJHzheNtqTO-33" value="displays" style="edgeLabel;html=1;align=center;verticalAlign=middle;resizable=0;points=[];" vertex="1" connectable="0" parent="SCFeL1x_HWJHzheNtqTO-32">
          <mxGeometry x="0.0833" y="-2" relative="1" as="geometry">
            <mxPoint x="58" as="offset" />
          </mxGeometry>
        </mxCell>
        <mxCell id="SCFeL1x_HWJHzheNtqTO-2" value="Home.vue" style="whiteSpace=wrap;html=1;rounded=0;fillColor=#d5e8d4;strokeColor=#82b366;" vertex="1" parent="1">
          <mxGeometry x="90" y="393" width="120" height="60" as="geometry" />
        </mxCell>
        <mxCell id="SCFeL1x_HWJHzheNtqTO-8" value="" style="edgeStyle=orthogonalEdgeStyle;rounded=0;orthogonalLoop=1;jettySize=auto;html=1;startArrow=block;startFill=1;" edge="1" parent="1" source="SCFeL1x_HWJHzheNtqTO-5" target="SCFeL1x_HWJHzheNtqTO-7">
          <mxGeometry relative="1" as="geometry" />
        </mxCell>
        <mxCell id="SCFeL1x_HWJHzheNtqTO-34" style="edgeStyle=orthogonalEdgeStyle;rounded=0;orthogonalLoop=1;jettySize=auto;html=1;entryX=0;entryY=0.5;entryDx=0;entryDy=0;" edge="1" parent="1" source="SCFeL1x_HWJHzheNtqTO-5" target="SCFeL1x_HWJHzheNtqTO-2">
          <mxGeometry relative="1" as="geometry" />
        </mxCell>
        <mxCell id="SCFeL1x_HWJHzheNtqTO-85" style="edgeStyle=orthogonalEdgeStyle;rounded=0;orthogonalLoop=1;jettySize=auto;html=1;entryX=0;entryY=0.5;entryDx=0;entryDy=0;" edge="1" parent="1" source="SCFeL1x_HWJHzheNtqTO-5" target="SCFeL1x_HWJHzheNtqTO-48">
          <mxGeometry relative="1" as="geometry">
            <Array as="points">
              <mxPoint x="-210" y="423" />
              <mxPoint x="-210" y="769" />
            </Array>
          </mxGeometry>
        </mxCell>
        <mxCell id="SCFeL1x_HWJHzheNtqTO-86" value="login user" style="edgeLabel;html=1;align=center;verticalAlign=middle;resizable=0;points=[];" vertex="1" connectable="0" parent="SCFeL1x_HWJHzheNtqTO-85">
          <mxGeometry x="-0.4755" y="3" relative="1" as="geometry">
            <mxPoint as="offset" />
          </mxGeometry>
        </mxCell>
        <mxCell id="SCFeL1x_HWJHzheNtqTO-5" value="Login.vue" style="whiteSpace=wrap;html=1;rounded=0;fillColor=#d5e8d4;strokeColor=#82b366;" vertex="1" parent="1">
          <mxGeometry x="-185" y="393" width="120" height="60" as="geometry" />
        </mxCell>
        <mxCell id="SCFeL1x_HWJHzheNtqTO-50" style="edgeStyle=orthogonalEdgeStyle;rounded=0;orthogonalLoop=1;jettySize=auto;html=1;entryX=0.5;entryY=0;entryDx=0;entryDy=0;" edge="1" parent="1" source="SCFeL1x_HWJHzheNtqTO-7" target="SCFeL1x_HWJHzheNtqTO-48">
          <mxGeometry relative="1" as="geometry" />
        </mxCell>
        <mxCell id="SCFeL1x_HWJHzheNtqTO-51" value="save local credentials" style="edgeLabel;html=1;align=center;verticalAlign=middle;resizable=0;points=[];" vertex="1" connectable="0" parent="SCFeL1x_HWJHzheNtqTO-50">
          <mxGeometry x="0.042" relative="1" as="geometry">
            <mxPoint y="-53" as="offset" />
          </mxGeometry>
        </mxCell>
        <mxCell id="SCFeL1x_HWJHzheNtqTO-87" style="edgeStyle=orthogonalEdgeStyle;rounded=0;orthogonalLoop=1;jettySize=auto;html=1;entryX=0;entryY=0.75;entryDx=0;entryDy=0;" edge="1" parent="1" source="SCFeL1x_HWJHzheNtqTO-7" target="SCFeL1x_HWJHzheNtqTO-2">
          <mxGeometry relative="1" as="geometry">
            <Array as="points">
              <mxPoint x="-50" y="572" />
              <mxPoint x="-50" y="438" />
            </Array>
          </mxGeometry>
        </mxCell>
        <mxCell id="SCFeL1x_HWJHzheNtqTO-7" value="SignUp.vue" style="whiteSpace=wrap;html=1;rounded=0;fillColor=#d5e8d4;strokeColor=#82b366;" vertex="1" parent="1">
          <mxGeometry x="-185" y="542" width="120" height="60" as="geometry" />
        </mxCell>
        <mxCell id="SCFeL1x_HWJHzheNtqTO-16" value="" style="edgeStyle=orthogonalEdgeStyle;rounded=0;orthogonalLoop=1;jettySize=auto;html=1;" edge="1" parent="1" source="SCFeL1x_HWJHzheNtqTO-9" target="SCFeL1x_HWJHzheNtqTO-15">
          <mxGeometry relative="1" as="geometry" />
        </mxCell>
        <mxCell id="SCFeL1x_HWJHzheNtqTO-79" style="edgeStyle=orthogonalEdgeStyle;rounded=0;orthogonalLoop=1;jettySize=auto;html=1;entryX=0.75;entryY=0;entryDx=0;entryDy=0;" edge="1" parent="1" source="SCFeL1x_HWJHzheNtqTO-9" target="SCFeL1x_HWJHzheNtqTO-57">
          <mxGeometry relative="1" as="geometry">
            <mxPoint x="390" y="920" as="targetPoint" />
            <Array as="points">
              <mxPoint x="550" y="490" />
              <mxPoint x="390" y="490" />
            </Array>
          </mxGeometry>
        </mxCell>
        <mxCell id="SCFeL1x_HWJHzheNtqTO-80" value="generate event" style="edgeLabel;html=1;align=center;verticalAlign=middle;resizable=0;points=[];" vertex="1" connectable="0" parent="SCFeL1x_HWJHzheNtqTO-79">
          <mxGeometry x="0.2921" relative="1" as="geometry">
            <mxPoint y="131" as="offset" />
          </mxGeometry>
        </mxCell>
        <mxCell id="SCFeL1x_HWJHzheNtqTO-9" value="NewEvent.vue" style="rounded=0;whiteSpace=wrap;html=1;fillColor=#d5e8d4;strokeColor=#82b366;" vertex="1" parent="1">
          <mxGeometry x="490" y="393" width="120" height="60" as="geometry" />
        </mxCell>
        <mxCell id="SCFeL1x_HWJHzheNtqTO-73" value="" style="edgeStyle=orthogonalEdgeStyle;rounded=0;orthogonalLoop=1;jettySize=auto;html=1;" edge="1" parent="1" source="SCFeL1x_HWJHzheNtqTO-11" target="SCFeL1x_HWJHzheNtqTO-72">
          <mxGeometry relative="1" as="geometry" />
        </mxCell>
        <mxCell id="SCFeL1x_HWJHzheNtqTO-74" value="update" style="edgeLabel;html=1;align=center;verticalAlign=middle;resizable=0;points=[];" vertex="1" connectable="0" parent="SCFeL1x_HWJHzheNtqTO-73">
          <mxGeometry x="-0.2526" y="1" relative="1" as="geometry">
            <mxPoint as="offset" />
          </mxGeometry>
        </mxCell>
        <mxCell id="SCFeL1x_HWJHzheNtqTO-11" value="User.vue" style="whiteSpace=wrap;html=1;rounded=0;fillColor=#d5e8d4;strokeColor=#82b366;" vertex="1" parent="1">
          <mxGeometry x="780" y="393" width="120" height="60" as="geometry" />
        </mxCell>
        <mxCell id="SCFeL1x_HWJHzheNtqTO-26" style="edgeStyle=orthogonalEdgeStyle;rounded=0;orthogonalLoop=1;jettySize=auto;html=1;entryX=0.5;entryY=1;entryDx=0;entryDy=0;" edge="1" parent="1" source="SCFeL1x_HWJHzheNtqTO-15" target="SCFeL1x_HWJHzheNtqTO-23">
          <mxGeometry relative="1" as="geometry" />
        </mxCell>
        <mxCell id="SCFeL1x_HWJHzheNtqTO-15" value="Success.vue" style="whiteSpace=wrap;html=1;rounded=0;fillColor=#d5e8d4;strokeColor=#82b366;" vertex="1" parent="1">
          <mxGeometry x="490" y="530" width="120" height="60" as="geometry" />
        </mxCell>
        <mxCell id="SCFeL1x_HWJHzheNtqTO-83" style="edgeStyle=orthogonalEdgeStyle;rounded=0;orthogonalLoop=1;jettySize=auto;html=1;entryX=0.25;entryY=0;entryDx=0;entryDy=0;" edge="1" parent="1" source="SCFeL1x_HWJHzheNtqTO-18" target="SCFeL1x_HWJHzheNtqTO-57">
          <mxGeometry relative="1" as="geometry">
            <Array as="points">
              <mxPoint x="330" y="423" />
            </Array>
          </mxGeometry>
        </mxCell>
        <mxCell id="SCFeL1x_HWJHzheNtqTO-84" value="CRUD category" style="edgeLabel;html=1;align=center;verticalAlign=middle;resizable=0;points=[];" vertex="1" connectable="0" parent="SCFeL1x_HWJHzheNtqTO-83">
          <mxGeometry x="0.6198" y="1" relative="1" as="geometry">
            <mxPoint x="-1" y="38" as="offset" />
          </mxGeometry>
        </mxCell>
        <mxCell id="SCFeL1x_HWJHzheNtqTO-18" value="categoryView.vue" style="whiteSpace=wrap;html=1;rounded=0;fillColor=#d5e8d4;strokeColor=#82b366;" vertex="1" parent="1">
          <mxGeometry x="344" y="393" width="120" height="60" as="geometry" />
        </mxCell>
        <mxCell id="SCFeL1x_HWJHzheNtqTO-81" style="edgeStyle=orthogonalEdgeStyle;rounded=0;orthogonalLoop=1;jettySize=auto;html=1;entryX=1;entryY=0.5;entryDx=0;entryDy=0;" edge="1" parent="1" source="SCFeL1x_HWJHzheNtqTO-23" target="SCFeL1x_HWJHzheNtqTO-57">
          <mxGeometry relative="1" as="geometry">
            <Array as="points">
              <mxPoint x="690" y="750" />
              <mxPoint x="570" y="750" />
              <mxPoint x="570" y="950" />
            </Array>
          </mxGeometry>
        </mxCell>
        <mxCell id="SCFeL1x_HWJHzheNtqTO-82" value="get events" style="edgeLabel;html=1;align=center;verticalAlign=middle;resizable=0;points=[];" vertex="1" connectable="0" parent="SCFeL1x_HWJHzheNtqTO-81">
          <mxGeometry x="0.2418" y="1" relative="1" as="geometry">
            <mxPoint x="49" y="-68" as="offset" />
          </mxGeometry>
        </mxCell>
        <mxCell id="SCFeL1x_HWJHzheNtqTO-23" value="EventsOfUser.vue" style="whiteSpace=wrap;html=1;rounded=0;fillColor=#d5e8d4;strokeColor=#82b366;" vertex="1" parent="1">
          <mxGeometry x="630" y="393" width="120" height="60" as="geometry" />
        </mxCell>
        <mxCell id="SCFeL1x_HWJHzheNtqTO-55" style="edgeStyle=orthogonalEdgeStyle;rounded=0;orthogonalLoop=1;jettySize=auto;html=1;entryX=0.5;entryY=0;entryDx=0;entryDy=0;" edge="1" parent="1" source="SCFeL1x_HWJHzheNtqTO-27" target="SCFeL1x_HWJHzheNtqTO-52">
          <mxGeometry relative="1" as="geometry" />
        </mxCell>
        <mxCell id="SCFeL1x_HWJHzheNtqTO-27" value="YearCallendar.vue" style="whiteSpace=wrap;html=1;rounded=0;fillColor=#d5e8d4;strokeColor=#82b366;" vertex="1" parent="1">
          <mxGeometry x="196.5" y="542" width="120" height="60" as="geometry" />
        </mxCell>
        <mxCell id="SCFeL1x_HWJHzheNtqTO-53" style="edgeStyle=orthogonalEdgeStyle;rounded=0;orthogonalLoop=1;jettySize=auto;html=1;" edge="1" parent="1" source="SCFeL1x_HWJHzheNtqTO-31" target="SCFeL1x_HWJHzheNtqTO-52">
          <mxGeometry relative="1" as="geometry" />
        </mxCell>
        <mxCell id="SCFeL1x_HWJHzheNtqTO-54" value="get events" style="edgeLabel;html=1;align=center;verticalAlign=middle;resizable=0;points=[];" vertex="1" connectable="0" parent="SCFeL1x_HWJHzheNtqTO-53">
          <mxGeometry x="0.2102" relative="1" as="geometry">
            <mxPoint x="33" y="-1" as="offset" />
          </mxGeometry>
        </mxCell>
        <mxCell id="SCFeL1x_HWJHzheNtqTO-88" style="edgeStyle=orthogonalEdgeStyle;rounded=0;orthogonalLoop=1;jettySize=auto;html=1;entryX=0;entryY=0.5;entryDx=0;entryDy=0;startArrow=block;startFill=1;" edge="1" parent="1" source="SCFeL1x_HWJHzheNtqTO-31" target="SCFeL1x_HWJHzheNtqTO-27">
          <mxGeometry relative="1" as="geometry" />
        </mxCell>
        <mxCell id="SCFeL1x_HWJHzheNtqTO-89" value="switch" style="edgeLabel;html=1;align=center;verticalAlign=middle;resizable=0;points=[];" vertex="1" connectable="0" parent="SCFeL1x_HWJHzheNtqTO-88">
          <mxGeometry x="0.0312" y="2" relative="1" as="geometry">
            <mxPoint as="offset" />
          </mxGeometry>
        </mxCell>
        <mxCell id="SCFeL1x_HWJHzheNtqTO-31" value="MonthCallendar.vue" style="whiteSpace=wrap;html=1;rounded=0;fillColor=#d5e8d4;strokeColor=#82b366;" vertex="1" parent="1">
          <mxGeometry x="-10" y="542" width="120" height="60" as="geometry" />
        </mxCell>
        <mxCell id="SCFeL1x_HWJHzheNtqTO-39" style="edgeStyle=orthogonalEdgeStyle;rounded=0;orthogonalLoop=1;jettySize=auto;html=1;exitX=0.5;exitY=1;exitDx=0;exitDy=0;" edge="1" parent="1" source="SCFeL1x_HWJHzheNtqTO-36">
          <mxGeometry relative="1" as="geometry">
            <mxPoint x="470" y="280" as="targetPoint" />
          </mxGeometry>
        </mxCell>
        <mxCell id="SCFeL1x_HWJHzheNtqTO-40" value="includes" style="edgeLabel;html=1;align=center;verticalAlign=middle;resizable=0;points=[];" vertex="1" connectable="0" parent="SCFeL1x_HWJHzheNtqTO-39">
          <mxGeometry x="-0.0717" y="-4" relative="1" as="geometry">
            <mxPoint as="offset" />
          </mxGeometry>
        </mxCell>
        <mxCell id="SCFeL1x_HWJHzheNtqTO-36" value="Navbar.vue" style="rounded=0;whiteSpace=wrap;html=1;fillColor=#d5e8d4;strokeColor=#82b366;" vertex="1" parent="1">
          <mxGeometry x="344" y="140" width="120" height="60" as="geometry" />
        </mxCell>
        <mxCell id="SCFeL1x_HWJHzheNtqTO-38" style="edgeStyle=orthogonalEdgeStyle;rounded=0;orthogonalLoop=1;jettySize=auto;html=1;entryX=0.5;entryY=0;entryDx=0;entryDy=0;" edge="1" parent="1" source="SCFeL1x_HWJHzheNtqTO-37" target="SCFeL1x_HWJHzheNtqTO-1">
          <mxGeometry relative="1" as="geometry" />
        </mxCell>
        <mxCell id="SCFeL1x_HWJHzheNtqTO-41" value="includes" style="edgeLabel;html=1;align=center;verticalAlign=middle;resizable=0;points=[];" vertex="1" connectable="0" parent="SCFeL1x_HWJHzheNtqTO-38">
          <mxGeometry x="-0.2055" relative="1" as="geometry">
            <mxPoint as="offset" />
          </mxGeometry>
        </mxCell>
        <mxCell id="SCFeL1x_HWJHzheNtqTO-37" value="Footer.vue" style="rounded=0;whiteSpace=wrap;html=1;fillColor=#d5e8d4;strokeColor=#82b366;" vertex="1" parent="1">
          <mxGeometry x="480" y="140" width="120" height="60" as="geometry" />
        </mxCell>
        <mxCell id="SCFeL1x_HWJHzheNtqTO-60" value="" style="edgeStyle=orthogonalEdgeStyle;rounded=0;orthogonalLoop=1;jettySize=auto;html=1;entryX=0.5;entryY=0;entryDx=0;entryDy=0;entryPerimeter=0;" edge="1" parent="1" source="SCFeL1x_HWJHzheNtqTO-48" target="SCFeL1x_HWJHzheNtqTO-63">
          <mxGeometry relative="1" as="geometry">
            <mxPoint x="-125" y="879" as="targetPoint" />
          </mxGeometry>
        </mxCell>
        <mxCell id="SCFeL1x_HWJHzheNtqTO-64" value="user" style="edgeLabel;html=1;align=center;verticalAlign=middle;resizable=0;points=[];" vertex="1" connectable="0" parent="SCFeL1x_HWJHzheNtqTO-60">
          <mxGeometry x="-0.4437" y="3" relative="1" as="geometry">
            <mxPoint x="-3" as="offset" />
          </mxGeometry>
        </mxCell>
        <mxCell id="SCFeL1x_HWJHzheNtqTO-70" style="edgeStyle=orthogonalEdgeStyle;rounded=0;orthogonalLoop=1;jettySize=auto;html=1;entryX=0;entryY=0.5;entryDx=0;entryDy=0;" edge="1" parent="1" source="SCFeL1x_HWJHzheNtqTO-48" target="SCFeL1x_HWJHzheNtqTO-57">
          <mxGeometry relative="1" as="geometry">
            <Array as="points">
              <mxPoint x="10" y="769" />
              <mxPoint x="10" y="950" />
            </Array>
          </mxGeometry>
        </mxCell>
        <mxCell id="SCFeL1x_HWJHzheNtqTO-71" value="user" style="edgeLabel;html=1;align=center;verticalAlign=middle;resizable=0;points=[];" vertex="1" connectable="0" parent="SCFeL1x_HWJHzheNtqTO-70">
          <mxGeometry x="-0.0951" y="2" relative="1" as="geometry">
            <mxPoint as="offset" />
          </mxGeometry>
        </mxCell>
        <mxCell id="SCFeL1x_HWJHzheNtqTO-48" value="Store.ts" style="rounded=0;whiteSpace=wrap;html=1;movable=1;resizable=1;rotatable=1;deletable=1;editable=1;locked=0;connectable=1;fillColor=#dae8fc;strokeColor=#6c8ebf;" vertex="1" parent="1">
          <mxGeometry x="-185" y="739" width="120" height="60" as="geometry" />
        </mxCell>
        <mxCell id="SCFeL1x_HWJHzheNtqTO-58" value="events" style="edgeStyle=orthogonalEdgeStyle;rounded=0;orthogonalLoop=1;jettySize=auto;html=1;entryX=0;entryY=0.25;entryDx=0;entryDy=0;exitX=1;exitY=0.5;exitDx=0;exitDy=0;" edge="1" parent="1" source="SCFeL1x_HWJHzheNtqTO-52" target="SCFeL1x_HWJHzheNtqTO-57">
          <mxGeometry x="-0.2343" relative="1" as="geometry">
            <Array as="points">
              <mxPoint x="270" y="790" />
              <mxPoint x="270" y="935" />
            </Array>
            <mxPoint y="1" as="offset" />
          </mxGeometry>
        </mxCell>
        <mxCell id="SCFeL1x_HWJHzheNtqTO-52" value="CallendarService.ts" style="rounded=0;whiteSpace=wrap;html=1;fillColor=#dae8fc;strokeColor=#6c8ebf;" vertex="1" parent="1">
          <mxGeometry x="90" y="739" width="120" height="60" as="geometry" />
        </mxCell>
        <mxCell id="SCFeL1x_HWJHzheNtqTO-91" value="" style="edgeStyle=orthogonalEdgeStyle;rounded=0;orthogonalLoop=1;jettySize=auto;html=1;" edge="1" parent="1" source="SCFeL1x_HWJHzheNtqTO-57" target="SCFeL1x_HWJHzheNtqTO-90">
          <mxGeometry relative="1" as="geometry" />
        </mxCell>
        <mxCell id="SCFeL1x_HWJHzheNtqTO-57" value="DbConnector.ts" style="rounded=0;whiteSpace=wrap;html=1;fillColor=#dae8fc;strokeColor=#6c8ebf;" vertex="1" parent="1">
          <mxGeometry x="300" y="920" width="120" height="60" as="geometry" />
        </mxCell>
        <mxCell id="SCFeL1x_HWJHzheNtqTO-61" value="MariaDB" style="strokeWidth=2;html=1;shape=mxgraph.flowchart.database;whiteSpace=wrap;fillColor=#f8cecc;strokeColor=#b85450;" vertex="1" parent="1">
          <mxGeometry x="330" y="1160" width="60" height="60" as="geometry" />
        </mxCell>
        <mxCell id="SCFeL1x_HWJHzheNtqTO-63" value="Firebase" style="strokeWidth=2;html=1;shape=mxgraph.flowchart.database;whiteSpace=wrap;fillColor=#f8cecc;strokeColor=#b85450;" vertex="1" parent="1">
          <mxGeometry x="-210" y="1160" width="60" height="60" as="geometry" />
        </mxCell>
        <mxCell id="SCFeL1x_HWJHzheNtqTO-68" value="&lt;div&gt;&lt;br&gt;&lt;/div&gt;Google SSO" style="strokeWidth=2;html=1;shape=mxgraph.flowchart.database;whiteSpace=wrap;fillColor=#f8cecc;strokeColor=#b85450;" vertex="1" parent="1">
          <mxGeometry x="-100" y="1160" width="60" height="60" as="geometry" />
        </mxCell>
        <mxCell id="SCFeL1x_HWJHzheNtqTO-75" style="edgeStyle=orthogonalEdgeStyle;rounded=0;orthogonalLoop=1;jettySize=auto;html=1;entryX=1;entryY=0.75;entryDx=0;entryDy=0;" edge="1" parent="1" source="SCFeL1x_HWJHzheNtqTO-72" target="SCFeL1x_HWJHzheNtqTO-57">
          <mxGeometry relative="1" as="geometry">
            <Array as="points">
              <mxPoint x="598" y="769" />
              <mxPoint x="598" y="965" />
            </Array>
          </mxGeometry>
        </mxCell>
        <mxCell id="SCFeL1x_HWJHzheNtqTO-76" value="user" style="edgeLabel;html=1;align=center;verticalAlign=middle;resizable=0;points=[];" vertex="1" connectable="0" parent="SCFeL1x_HWJHzheNtqTO-75">
          <mxGeometry x="-0.0972" relative="1" as="geometry">
            <mxPoint as="offset" />
          </mxGeometry>
        </mxCell>
        <mxCell id="SCFeL1x_HWJHzheNtqTO-72" value="UserService.ts" style="whiteSpace=wrap;html=1;rounded=0;fillColor=#dae8fc;strokeColor=#6c8ebf;" vertex="1" parent="1">
          <mxGeometry x="780" y="739" width="120" height="60" as="geometry" />
        </mxCell>
        <mxCell id="SCFeL1x_HWJHzheNtqTO-77" style="edgeStyle=orthogonalEdgeStyle;rounded=0;orthogonalLoop=1;jettySize=auto;html=1;entryX=1;entryY=0.15;entryDx=0;entryDy=0;entryPerimeter=0;" edge="1" parent="1" source="SCFeL1x_HWJHzheNtqTO-72" target="SCFeL1x_HWJHzheNtqTO-63">
          <mxGeometry relative="1" as="geometry">
            <Array as="points">
              <mxPoint x="837" y="1009" />
              <mxPoint x="-150" y="1009" />
            </Array>
          </mxGeometry>
        </mxCell>
        <mxCell id="SCFeL1x_HWJHzheNtqTO-78" value="user" style="edgeLabel;html=1;align=center;verticalAlign=middle;resizable=0;points=[];" vertex="1" connectable="0" parent="SCFeL1x_HWJHzheNtqTO-77">
          <mxGeometry x="-0.0508" y="-2" relative="1" as="geometry">
            <mxPoint as="offset" />
          </mxGeometry>
        </mxCell>
        <mxCell id="SCFeL1x_HWJHzheNtqTO-10" value="" style="edgeStyle=orthogonalEdgeStyle;rounded=0;orthogonalLoop=1;jettySize=auto;html=1;" edge="1" parent="1" source="SCFeL1x_HWJHzheNtqTO-1" target="SCFeL1x_HWJHzheNtqTO-9">
          <mxGeometry relative="1" as="geometry" />
        </mxCell>
        <mxCell id="SCFeL1x_HWJHzheNtqTO-14" value="Router" style="edgeLabel;html=1;align=center;verticalAlign=middle;resizable=0;points=[];" vertex="1" connectable="0" parent="SCFeL1x_HWJHzheNtqTO-10">
          <mxGeometry x="0.075" y="1" relative="1" as="geometry">
            <mxPoint x="-43" as="offset" />
          </mxGeometry>
        </mxCell>
        <mxCell id="SCFeL1x_HWJHzheNtqTO-6" value="" style="edgeStyle=orthogonalEdgeStyle;rounded=0;orthogonalLoop=1;jettySize=auto;html=1;" edge="1" parent="1" source="SCFeL1x_HWJHzheNtqTO-1" target="SCFeL1x_HWJHzheNtqTO-5">
          <mxGeometry relative="1" as="geometry" />
        </mxCell>
        <mxCell id="SCFeL1x_HWJHzheNtqTO-3" value="" style="edgeStyle=orthogonalEdgeStyle;rounded=0;orthogonalLoop=1;jettySize=auto;html=1;" edge="1" parent="1" source="SCFeL1x_HWJHzheNtqTO-1" target="SCFeL1x_HWJHzheNtqTO-2">
          <mxGeometry relative="1" as="geometry" />
        </mxCell>
        <mxCell id="SCFeL1x_HWJHzheNtqTO-4" value="Router" style="edgeLabel;html=1;align=center;verticalAlign=middle;resizable=0;points=[];" vertex="1" connectable="0" parent="SCFeL1x_HWJHzheNtqTO-3">
          <mxGeometry x="-0.075" y="1" relative="1" as="geometry">
            <mxPoint x="63" y="-1" as="offset" />
          </mxGeometry>
        </mxCell>
        <mxCell id="SCFeL1x_HWJHzheNtqTO-92" style="edgeStyle=orthogonalEdgeStyle;rounded=0;orthogonalLoop=1;jettySize=auto;html=1;" edge="1" parent="1" source="SCFeL1x_HWJHzheNtqTO-90" target="SCFeL1x_HWJHzheNtqTO-61">
          <mxGeometry relative="1" as="geometry" />
        </mxCell>
        <mxCell id="SCFeL1x_HWJHzheNtqTO-90" value="Backend" style="whiteSpace=wrap;html=1;fillColor=#f8cecc;strokeColor=#b85450;rounded=0;" vertex="1" parent="1">
          <mxGeometry x="300" y="1040" width="120" height="60" as="geometry" />
        </mxCell>
        <mxCell id="SCFeL1x_HWJHzheNtqTO-94" value="" style="rounded=0;whiteSpace=wrap;html=1;fillColor=none;strokeColor=#d6e8d5;dashed=1;dashPattern=8 8;strokeWidth=5;" vertex="1" parent="1">
          <mxGeometry x="-250" y="130" width="1170" height="510" as="geometry" />
        </mxCell>
        <mxCell id="SCFeL1x_HWJHzheNtqTO-95" value="&lt;b&gt;Frontend&lt;/b&gt;" style="text;html=1;align=center;verticalAlign=middle;whiteSpace=wrap;rounded=0;fillColor=none;strokeColor=none;" vertex="1" parent="1">
          <mxGeometry x="-250" y="100" width="60" height="30" as="geometry" />
        </mxCell>
        <mxCell id="SCFeL1x_HWJHzheNtqTO-96" value="&lt;b&gt;Connection&lt;/b&gt;" style="text;html=1;align=center;verticalAlign=middle;whiteSpace=wrap;rounded=0;fillColor=none;strokeColor=none;" vertex="1" parent="1">
          <mxGeometry x="-250" y="660" width="60" height="30" as="geometry" />
        </mxCell>
        <mxCell id="SCFeL1x_HWJHzheNtqTO-97" value="" style="rounded=0;whiteSpace=wrap;html=1;fillColor=none;strokeColor=#dae8fc;dashed=1;dashPattern=8 8;strokeWidth=5;" vertex="1" parent="1">
          <mxGeometry x="-250" y="690" width="1170" height="300" as="geometry" />
        </mxCell>
        <mxCell id="SCFeL1x_HWJHzheNtqTO-98" value="&lt;b&gt;Backend&lt;/b&gt;" style="text;html=1;align=center;verticalAlign=middle;whiteSpace=wrap;rounded=0;fillColor=none;strokeColor=none;" vertex="1" parent="1">
          <mxGeometry x="-250" y="1000" width="60" height="30" as="geometry" />
        </mxCell>
      </root>
    </mxGraphModel>
  </diagram>
</mxfile>
